<?xml version="1.0" encoding="UTF-8" standalone="no"?>
<!DOCTYPE svg PUBLIC "-//W3C//DTD SVG 1.1//EN" "http://www.w3.org/Graphics/SVG/1.1/DTD/svg11.dtd">
<svg version="1.1" xmlns="http://www.w3.org/2000/svg" xmlns:xlink="http://www.w3.org/1999/xlink" preserveAspectRatio="xMidYMid meet" viewBox="0 0 640 320" width="640" height="320"><defs><path d="M207.63 232.35C210.95 234.73 210.36 239.83 206.59 241.38C203.48 242.67 197.35 245.19 192.88 247.04C191.71 247.52 190.82 248.49 190.44 249.69C188.87 254.65 186.53 262 185.41 265.55C184.28 269.1 179.53 269.72 177.53 266.59C175.82 263.93 172.89 259.36 170.47 255.58C169.57 254.18 167.97 253.4 166.31 253.55C161.84 253.96 157.28 254.39 154.35 254.66C150.22 255.04 147.52 250.44 149.87 247.03C151.85 244.13 155.54 238.76 158.44 234.54C159.3 233.28 159.57 231.69 159.16 230.21C157.88 225.63 156.08 219.15 155.15 215.8C154.12 212.1 157.56 208.72 161.24 209.8C164.22 210.69 168.6 211.98 172.55 213.15C174.79 213.81 177.22 213.29 178.98 211.76C182.56 208.67 186.74 205.04 189.39 202.75C192.19 200.32 196.53 202.44 196.34 206.14C196.17 209.64 195.85 215.8 195.6 220.68C195.51 222.52 196.36 224.29 197.86 225.36C201.34 227.85 205.2 230.61 207.63 232.35Z" id="dKZixd28T"></path><path d="M72.78 254.48C76.18 254.26 78.49 257.86 76.88 260.86C75.55 263.33 72.93 268.19 71.02 271.74C70.52 272.67 70.46 273.77 70.84 274.74C72.45 278.77 74.82 284.74 75.97 287.63C77.11 290.51 74.38 293.42 71.44 292.46C68.93 291.64 64.63 290.24 61.07 289.08C59.76 288.65 58.31 288.99 57.32 289.96C54.66 292.59 51.94 295.27 50.19 296.99C47.73 299.41 43.56 297.87 43.27 294.43C43.02 291.52 42.57 286.1 42.21 281.86C42.1 280.58 41.44 279.42 40.39 278.69C37.15 276.4 32.57 273.17 30.2 271.5C27.58 269.66 28.02 265.66 30.96 264.42C33.35 263.42 36.86 261.94 40.02 260.61C41.82 259.86 43.1 258.24 43.44 256.32C44.11 252.44 44.9 247.89 45.4 245.02C45.92 241.97 49.84 241.05 51.67 243.54C53.4 245.89 56.45 250.03 58.86 253.3C59.78 254.54 61.26 255.23 62.79 255.13C66.35 254.9 70.29 254.65 72.78 254.48Z" id="a1c3EOzC3U"></path><path d="M289.56 50.49C294.59 51.36 296.68 57.43 293.27 61.23C290.46 64.35 284.93 70.52 280.88 75.02C279.83 76.19 279.35 77.77 279.57 79.33C280.48 85.76 281.83 95.31 282.48 99.92C283.13 104.53 278.12 107.8 274.17 105.36C270.81 103.29 265.03 99.72 260.26 96.77C258.49 95.68 256.26 95.66 254.47 96.73C249.66 99.62 244.75 102.56 241.59 104.45C237.15 107.12 231.62 103.4 232.41 98.28C233.08 93.94 234.33 85.89 235.31 79.57C235.6 77.68 235.04 75.75 233.78 74.31C229.87 69.83 224.33 63.5 221.46 60.23C218.31 56.62 220.35 50.94 225.09 50.18C228.92 49.56 234.55 48.65 239.64 47.83C242.52 47.36 244.97 45.46 246.13 42.78C248.49 37.36 251.24 31.01 252.99 27C254.83 22.75 260.87 22.79 262.66 27.06C264.35 31.1 267.33 38.21 269.69 43.84C270.58 45.97 272.49 47.5 274.77 47.9C280.04 48.82 285.87 49.84 289.56 50.49Z" id="bFjBw0JGS"></path><path d="M531.67 251.41C534.73 251.6 536.37 255.08 534.59 257.57C533.12 259.62 530.22 263.66 528.1 266.61C527.55 267.37 527.36 268.35 527.6 269.26C528.56 273.04 529.99 278.65 530.68 281.36C531.37 284.06 528.6 286.34 526.08 285.14C523.94 284.12 520.26 282.37 517.22 280.93C516.09 280.39 514.76 280.53 513.77 281.28C511.09 283.32 508.35 285.4 506.59 286.73C504.11 288.61 500.57 286.75 500.71 283.65C500.83 281.02 501.05 276.13 501.22 272.3C501.27 271.15 500.81 270.04 499.96 269.26C497.33 266.85 493.61 263.43 491.69 261.67C489.57 259.72 490.42 256.2 493.2 255.44C495.44 254.82 498.74 253.91 501.72 253.08C503.41 252.62 504.75 251.32 505.27 249.65C506.32 246.26 507.55 242.3 508.32 239.79C509.15 237.13 512.75 236.76 514.1 239.19C515.37 241.49 517.61 245.54 519.38 248.74C520.05 249.95 521.3 250.74 522.68 250.83C525.88 251.03 529.43 251.26 531.67 251.41Z" id="af4dKP91j"></path><path d="M565.53 52.37C566.8 51.77 567.6 51.39 567.91 51.24C575.77 47.51 584.11 44.92 592.69 43.54C594.55 43.24 590.11 43.95 592.69 43.54C596.59 42.91 599.57 46.95 597.82 50.49C596.6 52.98 598.66 48.8 597.82 50.49C593.78 58.7 588.02 65.95 580.93 71.74C568.87 81.6 581.18 71.54 578.56 73.68C540.2 105.05 496.96 129.92 450.55 147.31C447.62 148.4 464.57 142.05 450.55 147.31C440.82 150.95 430.68 153.43 420.36 154.7C418.57 154.92 422.32 154.46 418.92 154.87C415.73 155.26 413.4 151.93 414.87 149.07C416.33 146.22 414.52 149.75 415.29 148.25C419.79 139.46 426.54 132.03 434.86 126.72C435.1 126.57 435.68 126.2 436.61 125.61" id="eWiBKZO9p"></path><path d="M580.38 96.83C580.38 138.23 546.77 171.83 505.38 171.83C463.99 171.83 430.38 138.23 430.38 96.83C430.38 55.44 463.99 21.83 505.38 21.83C546.77 21.83 580.38 55.44 580.38 96.83Z" id="h58YqIrUvl"></path><path d="M352.34 83.02C350.38 83.58 348.56 81.76 349.13 79.8C349.6 78.18 350.52 75 351.19 72.68C351.37 72.07 351.27 71.42 350.92 70.9C349.47 68.74 347.32 65.53 346.28 63.99C345.25 62.44 346.48 60.39 348.33 60.58C349.9 60.74 352.61 61.02 354.84 61.25C355.67 61.34 356.47 60.96 356.93 60.26C358.16 58.39 359.42 56.47 360.22 55.24C361.36 53.51 364 53.88 364.6 55.86C365.12 57.54 366.07 60.66 366.82 63.11C367.04 63.84 367.58 64.44 368.28 64.74C370.47 65.67 373.57 66.98 375.17 67.66C376.93 68.41 377.19 70.81 375.61 71.91C374.34 72.8 372.47 74.11 370.78 75.29C369.82 75.96 369.27 77.07 369.32 78.24C369.42 80.6 369.53 83.37 369.6 85.12C369.67 86.97 367.49 88 366.1 86.78C364.79 85.62 362.48 83.57 360.65 81.96C359.96 81.35 359.01 81.13 358.12 81.38C356.06 81.97 353.78 82.61 352.34 83.02Z" id="b1PiXlyxaK"></path><path d="M115.19 94.36C119.61 94.32 122.34 99.16 120.03 102.93C118.12 106.04 114.37 112.15 111.62 116.62C110.91 117.79 110.75 119.21 111.18 120.5C112.96 125.85 115.6 133.77 116.88 137.6C118.15 141.42 114.39 145 110.64 143.54C107.45 142.29 101.97 140.15 97.44 138.39C95.76 137.73 93.86 138.07 92.5 139.26C88.85 142.47 85.12 145.75 82.73 147.86C79.36 150.82 74.06 148.51 73.94 144.03C73.83 140.22 73.64 133.17 73.49 127.63C73.44 125.97 72.66 124.41 71.36 123.38C67.32 120.18 61.61 115.64 58.66 113.3C55.4 110.72 56.26 105.56 60.18 104.17C63.35 103.04 68.01 101.39 72.22 99.89C74.6 99.05 76.39 97.04 76.96 94.58C78.12 89.59 79.48 83.75 80.34 80.05C81.25 76.14 86.4 75.23 88.59 78.59C90.67 81.77 94.32 87.37 97.21 91.8C98.3 93.47 100.17 94.48 102.17 94.46C106.81 94.42 111.94 94.38 115.19 94.36Z" id="b6yXCXpQK"></path><path d="M579.34 200.72C577.38 201.28 575.56 199.46 576.13 197.5C576.6 195.88 577.52 192.7 578.19 190.37C578.37 189.77 578.27 189.12 577.92 188.59C576.47 186.43 574.32 183.23 573.28 181.68C572.25 180.14 573.48 178.09 575.33 178.28C576.9 178.44 579.61 178.72 581.84 178.95C582.67 179.04 583.47 178.65 583.93 177.96C585.16 176.08 586.42 174.17 587.22 172.94C588.36 171.2 591 171.58 591.6 173.56C592.12 175.24 593.07 178.36 593.82 180.8C594.04 181.54 594.58 182.13 595.28 182.43C597.47 183.36 600.57 184.68 602.17 185.36C603.93 186.11 604.19 188.51 602.61 189.61C601.34 190.5 599.47 191.81 597.78 192.99C596.82 193.66 596.27 194.77 596.32 195.94C596.42 198.3 596.53 201.06 596.6 202.81C596.67 204.67 594.49 205.7 593.1 204.47C591.79 203.31 589.48 201.27 587.65 199.66C586.96 199.04 586.01 198.83 585.12 199.08C583.06 199.66 580.78 200.31 579.34 200.72Z" id="ah2qxnl64"></path><path d="M383.09 202.21C381.12 202.77 379.31 200.95 379.88 198.99C380.35 197.38 381.27 194.19 381.94 191.87C382.12 191.26 382.02 190.61 381.67 190.09C380.22 187.93 378.07 184.73 377.03 183.18C376 181.63 377.23 179.58 379.08 179.77C380.65 179.94 383.36 180.22 385.59 180.45C386.41 180.53 387.22 180.15 387.68 179.45C388.91 177.58 390.17 175.66 390.97 174.43C392.11 172.7 394.75 173.08 395.35 175.06C395.87 176.74 396.82 179.85 397.56 182.3C397.79 183.03 398.33 183.63 399.03 183.93C401.22 184.86 404.32 186.18 405.92 186.86C407.68 187.61 407.93 190.01 406.36 191.1C405.09 192 403.22 193.3 401.53 194.48C400.57 195.15 400.02 196.26 400.07 197.43C400.17 199.79 400.28 202.56 400.35 204.31C400.42 206.16 398.24 207.2 396.85 205.97C395.54 204.81 393.23 202.77 391.4 201.15C390.71 200.54 389.75 200.32 388.87 200.57C386.81 201.16 384.53 201.81 383.09 202.21Z" id="af0BvqqpL"></path><path d="M305.3 240.77C304.36 240.27 303.48 239.7 302.63 239.05C298.74 236.07 296.02 231.57 295.41 226.23C296.51 226.07 297.6 226.03 298.66 226.06C296.69 223.46 295.35 220.31 294.94 216.78C298.47 216.27 301.85 216.75 304.87 217.98C304.57 216.96 304.33 215.89 304.21 214.79C310.65 213.85 316.74 216.21 320.81 220.59C321.33 221.14 321.83 221.75 322.27 222.38C322.2 222.37 322.11 222.37 322.03 222.36C322.03 224.06 321.81 225.76 321.36 227.42C321.07 228.52 320.69 229.58 320.2 230.63C319.6 231.94 318.84 233.2 317.92 234.4C317.01 235.59 315.98 236.63 314.87 237.55C313.98 238.29 313.06 238.95 312.07 239.51C310.58 240.38 309 241.03 307.36 241.47C307.36 241.57 307.38 241.65 307.41 241.72C306.69 241.45 305.97 241.13 305.3 240.77Z" id="a1nKAvjFAp"></path><path d="M304.63 236.47C302.23 234.63 300.46 232.16 299.47 229.36C299.86 229.37 301.84 229.41 305.38 229.49C302.92 226.24 301.55 224.44 301.28 224.08C300.31 222.82 299.56 221.41 299.02 219.91C300.6 220.04 302.15 220.42 303.63 221.01C304.05 221.18 306.15 222.04 309.92 223.58C308.93 220.17 308.38 218.28 308.27 217.9C311.23 218.14 314.07 219.21 316.47 221.05C318.65 222.73 320.31 224.93 321.34 227.43C321.05 228.52 320.67 229.58 320.18 230.63C319.58 231.94 318.82 233.21 317.91 234.4C316.99 235.59 315.97 236.63 314.85 237.55C313.96 238.31 313.03 238.97 312.05 239.53C309.37 239.18 306.82 238.15 304.63 236.47Z" id="bsVYIRpa"></path><path d="M293.57 242.21C297.72 245.4 302.68 246.79 307.54 246.51C313.43 246.18 319.15 243.39 323.03 238.34C326.91 233.29 328.13 227.06 326.92 221.27C325.94 216.52 323.31 212.07 319.16 208.88C318.74 208.56 318.3 208.26 317.88 207.98C323.58 207.94 329.33 209.72 334.2 213.45C338.75 216.95 341.85 221.62 343.41 226.7C345.84 234.63 344.53 243.57 339.09 250.66C333.66 257.73 325.35 261.32 317.06 261.02C311.73 260.83 306.42 259.04 301.88 255.54C297 251.82 293.8 246.72 292.36 241.21C292.73 241.55 293.14 241.89 293.57 242.21Z" id="a6bvzvChB"></path><path d="M307.53 246.52C313.41 246.2 319.14 243.41 323.01 238.36C326.89 233.31 328.11 227.07 326.91 221.29C332.75 222.23 338.3 224.11 343.39 226.73C345.82 234.66 344.5 243.6 339.06 250.69C333.65 257.74 325.33 261.34 317.05 261.04C313.2 256.78 309.95 251.91 307.53 246.52Z" id="aSoyr8Zgo"></path><path d="M314.84 237.58C315.96 236.66 316.98 235.61 317.9 234.41C318.81 233.22 319.57 231.96 320.17 230.65C321.4 228.01 322 225.2 322.02 222.38C343.56 223.99 362.25 238.4 369.24 258.87C370.38 262.22 371.22 265.73 371.7 269.39C371.76 269.86 372.07 272.21 372.62 276.43C368.4 276.98 366.05 277.29 365.58 277.35C361.94 277.83 358.32 277.94 354.79 277.7C333.2 276.23 314.45 261.9 307.33 241.5C310.05 240.76 312.62 239.45 314.84 237.58Z" id="jnheCk4g"></path><path d="M352.14 245.74C349.54 243.75 346.37 242.99 343.36 243.4C340.36 243.8 337.5 245.34 335.51 247.93C333.53 250.51 332.77 253.66 333.15 256.66C333.53 259.69 335.08 262.56 337.7 264.55C342.88 268.56 350.33 267.58 354.33 262.38C358.32 257.18 357.34 249.73 352.14 245.74Z" id="bTrgqfiQH"></path><path d="M352.75 254.13C352.18 249.81 348.22 246.76 343.89 247.33C339.57 247.9 336.52 251.86 337.09 256.19C337.66 260.51 341.62 263.56 345.95 262.99C350.27 262.42 353.32 258.46 352.75 254.13Z" id="bE3mse2c3"></path><path d="M329.7 243.48C329.7 243.48 329.7 243.48 329.7 243.48C325.92 236.01 316.22 228.56 308.04 226.85C308.04 226.85 308.04 226.85 308.04 226.85C311.82 234.3 321.51 241.75 329.7 243.48C329.7 243.48 329.7 243.48 329.7 243.48Z" id="naV1IVmAC"></path></defs><g><g><g><use xlink:href="#dKZixd28T" opacity="1" fill="#ffc107" fill-opacity="0.85"></use></g><g><use xlink:href="#a1c3EOzC3U" opacity="1" fill="#ffc107" fill-opacity="0.85"></use></g><g><use xlink:href="#bFjBw0JGS" opacity="1" fill="#ffc107" fill-opacity="0.85"></use></g><g><use xlink:href="#af4dKP91j" opacity="1" fill="#ffc107" fill-opacity="0.85"></use></g><g><g><use xlink:href="#eWiBKZO9p" opacity="1" fill-opacity="0" stroke="#ffbf00" stroke-width="10" stroke-opacity="1"></use></g></g><g><use xlink:href="#h58YqIrUvl" opacity="1" fill="#ffbf00" fill-opacity="0"></use><g><use xlink:href="#h58YqIrUvl" opacity="1" fill-opacity="0" stroke="#ffbf00" stroke-width="10" stroke-opacity="1"></use></g></g><g><use xlink:href="#b1PiXlyxaK" opacity="1" fill="#ffc107" fill-opacity="0.85"></use></g><g><use xlink:href="#b6yXCXpQK" opacity="1" fill="#ffc107" fill-opacity="0.85"></use></g><g><use xlink:href="#ah2qxnl64" opacity="1" fill="#ffc107" fill-opacity="0.85"></use></g><g><use xlink:href="#af0BvqqpL" opacity="1" fill="#ffc107" fill-opacity="0.85"></use></g><g><use xlink:href="#a1nKAvjFAp" opacity="1" fill="#f6b44b" fill-opacity="1"></use><g><use xlink:href="#a1nKAvjFAp" opacity="1" fill-opacity="0" stroke="#000000" stroke-width="1" stroke-opacity="0"></use></g></g><g><use xlink:href="#bsVYIRpa" opacity="1" fill="#ffd05c" fill-opacity="1"></use><g><use xlink:href="#bsVYIRpa" opacity="1" fill-opacity="0" stroke="#000000" stroke-width="1" stroke-opacity="0"></use></g></g><g><use xlink:href="#a6bvzvChB" opacity="1" fill="#ffc107" fill-opacity="0.85"></use><g><use xlink:href="#a6bvzvChB" opacity="1" fill-opacity="0" stroke="#000000" stroke-width="1" stroke-opacity="0"></use></g></g><g><use xlink:href="#aSoyr8Zgo" opacity="1" fill="#334a5e" fill-opacity="1"></use><g><use xlink:href="#aSoyr8Zgo" opacity="1" fill-opacity="0" stroke="#000000" stroke-width="1" stroke-opacity="0"></use></g></g><g><use xlink:href="#jnheCk4g" opacity="1" fill="#ffc107" fill-opacity="0.85"></use><g><use xlink:href="#jnheCk4g" opacity="1" fill-opacity="0" stroke="#000000" stroke-width="1" stroke-opacity="0"></use></g></g><g><use xlink:href="#bTrgqfiQH" opacity="1" fill="#ffffff" fill-opacity="1"></use><g><use xlink:href="#bTrgqfiQH" opacity="1" fill-opacity="0" stroke="#000000" stroke-width="1" stroke-opacity="0"></use></g></g><g><use xlink:href="#bE3mse2c3" opacity="1" fill="#ffc107" fill-opacity="0.85"></use><g><use xlink:href="#bE3mse2c3" opacity="1" fill-opacity="0" stroke="#000000" stroke-width="1" stroke-opacity="0"></use></g></g><g><use xlink:href="#naV1IVmAC" opacity="1" fill="#41596b" fill-opacity="1"></use><g><use xlink:href="#naV1IVmAC" opacity="1" fill-opacity="0" stroke="#000000" stroke-width="1" stroke-opacity="0"></use></g></g></g></g></svg>