<?xml version="1.0" encoding="UTF-8" standalone="no"?>
<!DOCTYPE svg PUBLIC "-//W3C//DTD SVG 1.1//EN" "http://www.w3.org/Graphics/SVG/1.1/DTD/svg11.dtd">
<svg version="1.1" xmlns="http://www.w3.org/2000/svg" xmlns:xlink="http://www.w3.org/1999/xlink" preserveAspectRatio="xMidYMid meet" viewBox="0 0 512 512" width="512" height="512"><defs><path d="M397.23 0C460.06 0 511 50.94 511 113.77C511 193.02 511 296.75 511 370.94C511 447.74 448.74 510 371.94 510C297.75 510 201.04 510 123.55 510C55.87 510 1 455.13 1 387.45C1 309.96 1 186.41 1 105.52C1 47.24 48.24 0 106.52 0C187.41 0 317.98 0 397.23 0Z" id="c2NnNCmNtr"></path><path d="M51.2 0C23.04 0 0 23.04 0 51.2C0 92.16 0 419.84 0 460.8C0 488.96 23.04 512 51.2 512C92.16 512 419.84 512 460.8 512C488.96 512 512 488.96 512 460.8C512 419.84 512 92.16 512 51.2C512 23.04 488.96 0 460.8 0C378.88 0 92.16 0 51.2 0ZM76.8 435.2L76.8 204.8L153.6 204.8L153.6 435.2L76.8 435.2ZM69.12 115.2C69.12 89.6 89.6 69.12 115.2 69.12C140.8 69.12 161.28 89.6 161.28 115.2C161.28 140.8 140.8 161.28 115.2 161.28C89.6 161.28 69.12 140.8 69.12 115.2ZM358.4 435.2C358.4 353.79 358.4 308.57 358.4 299.52C358.4 279.04 340.48 261.12 320 261.12C299.52 261.12 281.6 279.04 281.6 299.52C281.6 308.57 281.6 353.79 281.6 435.2L204.8 435.2L204.8 204.8L281.6 204.8C281.6 223.23 281.6 233.47 281.6 235.52C294.4 215.04 322.56 199.68 345.6 199.68C394.24 199.68 435.2 240.64 435.2 289.28C435.2 299.01 435.2 347.65 435.2 435.2L358.4 435.2Z" id="dg7S4NvKF"></path></defs><g><g><g><use xlink:href="#c2NnNCmNtr" opacity="1" fill="#ff8c00" fill-opacity="1"></use></g><g><use xlink:href="#dg7S4NvKF" opacity="1" fill="#ffffff" fill-opacity="1"></use><g><use xlink:href="#dg7S4NvKF" opacity="1" fill-opacity="0" stroke="#000000" stroke-width="1" stroke-opacity="0"></use></g></g></g></g></svg>