<?xml version="1.0" encoding="UTF-8" standalone="no"?>
<!DOCTYPE svg PUBLIC "-//W3C//DTD SVG 1.1//EN" "http://www.w3.org/Graphics/SVG/1.1/DTD/svg11.dtd">
<svg version="1.1" xmlns="http://www.w3.org/2000/svg" xmlns:xlink="http://www.w3.org/1999/xlink" preserveAspectRatio="xMidYMid meet" viewBox="0 0 180 180" width="180" height="180"><defs><path d="M146.08 94.13C146.08 45.13 125.35 15.54 116.68 5.3C115.75 4.19 114.37 3.56 112.93 3.55C111.47 3.54 110.1 4.17 109.15 5.27C100.33 15.48 79.19 45.09 79.19 94.13C79.19 95.59 79.19 102.91 79.19 116.09C76.76 117.73 75.41 118.64 75.14 118.82C67.32 124.1 62.63 132.92 62.63 142.35C62.63 144.97 62.63 165.94 62.63 168.57C62.63 170.12 63.48 171.55 64.85 172.29C66.23 173.03 67.89 172.94 69.18 172.08C70.5 171.2 81.04 164.18 82.36 163.3C86.06 160.84 90.4 159.52 94.84 159.52C95.49 159.52 98.72 159.52 104.53 159.52C104.53 167.15 104.53 171.38 104.53 172.23C104.53 174.56 106.42 176.45 108.75 176.45C109.53 176.45 115.73 176.45 116.51 176.45C118.84 176.45 120.73 174.56 120.73 172.23C120.73 171.38 120.73 167.15 120.73 159.52C126.54 159.52 129.77 159.52 130.41 159.52C134.86 159.52 139.2 160.83 142.91 163.31C144.23 164.18 154.76 171.2 156.07 172.08C157.36 172.94 159.03 173.03 160.4 172.29C161.77 171.55 162.63 170.12 162.63 168.57C162.63 165.94 162.63 144.97 162.63 142.35C162.63 132.93 157.93 124.11 150.12 118.82C149.85 118.64 148.5 117.73 146.08 116.09C146.08 102.91 146.08 95.59 146.08 94.13ZM98.06 67.11C98.06 59.06 104.59 52.54 112.64 52.54C120.68 52.54 127.21 59.06 127.21 67.11C127.21 75.15 120.68 81.68 112.64 81.68C104.59 81.68 98.06 75.15 98.06 67.11Z" id="b2R024WX6w"></path><path d="M17.37 126.45L26.13 161.64L34.89 126.45L29.34 126.45L29.34 89.12L22.91 89.12L22.91 126.45L17.37 126.45Z" id="c3yzpRMdl6"></path><path d="M17.37 53.55L26.13 18.36L34.89 53.55L29.34 53.55L29.34 90.88L22.91 90.88L22.91 53.55L17.37 53.55Z" id="a6VNEopHzC"></path></defs><g><g><g><use xlink:href="#b2R024WX6w" opacity="1" fill="#ff8c00" fill-opacity="1"></use><g><use xlink:href="#b2R024WX6w" opacity="1" fill-opacity="0" stroke="#000000" stroke-width="1" stroke-opacity="0"></use></g></g><g><use xlink:href="#c3yzpRMdl6" opacity="1" fill="#000000" fill-opacity="1"></use></g><g><use xlink:href="#a6VNEopHzC" opacity="1" fill="#000000" fill-opacity="1"></use></g></g></g></svg>