<?xml version="1.0" encoding="UTF-8" standalone="no"?>
<!DOCTYPE svg PUBLIC "-//W3C//DTD SVG 1.1//EN" "http://www.w3.org/Graphics/SVG/1.1/DTD/svg11.dtd">
<svg version="1.1" xmlns="http://www.w3.org/2000/svg" xmlns:xlink="http://www.w3.org/1999/xlink" preserveAspectRatio="xMidYMid meet" viewBox="0 0 105 105" width="105" height="105"><defs><path d="M102.5 52.5C102.5 80.1 80.1 102.5 52.5 102.5C24.9 102.5 2.5 80.1 2.5 52.5C2.5 24.9 24.9 2.5 52.5 2.5C80.1 2.5 102.5 24.9 102.5 52.5Z" id="gmYkoRBLL"></path><path d="M30.52 68.73C42.68 56.63 62.32 56.63 74.48 68.73C75.97 70.21 74.89 69.13 80.48 74.7C81.4 75.61 81.92 76.86 81.92 78.15C81.92 79.12 81.92 77.34 81.92 77.65C81.92 79.51 79.61 80.39 78.37 78.99C73.2 73.13 74.94 75.1 73.2 73.13C62.2 60.69 42.8 60.69 31.8 73.13C30.06 75.1 31.95 72.96 26.81 78.78C25.51 80.25 23.08 79.33 23.08 77.36C23.08 77.12 23.08 78.9 23.08 77.88C23.08 76.76 23.53 75.68 24.32 74.89C29.96 69.29 29.03 70.21 30.52 68.73Z" id="a3FMrrAMda"></path><path d="M41.06 36.67C41.06 39.7 38.6 42.17 35.56 42.17C32.53 42.17 30.06 39.7 30.06 36.67C30.06 33.63 32.53 31.17 35.56 31.17C38.6 31.17 41.06 33.63 41.06 36.67Z" id="a2nU91EJrS"></path><path d="M74.94 36.67C74.94 39.7 72.47 42.17 69.44 42.17C66.4 42.17 63.94 39.7 63.94 36.67C63.94 33.63 66.4 31.17 69.44 31.17C72.47 31.17 74.94 33.63 74.94 36.67Z" id="f26vSLeljq"></path><path d="M34.06 49.48C34.06 50.58 33.17 51.48 32.06 51.48C30.96 51.48 30.06 50.58 30.06 49.48C30.06 48.37 30.96 45.33 32.06 45.33C33.17 45.33 34.06 48.37 34.06 49.48Z" id="a1ASx0A2dO"></path></defs><g><g><g><use xlink:href="#gmYkoRBLL" opacity="1" fill="#009aff" fill-opacity="0"></use><g><use xlink:href="#gmYkoRBLL" opacity="1" fill-opacity="0" stroke="#ff8c00" stroke-width="4" stroke-opacity="1"></use></g></g><g><use xlink:href="#a3FMrrAMda" opacity="1" fill="#ff8c00" fill-opacity="1"></use></g><g><use xlink:href="#a2nU91EJrS" opacity="1" fill="#ff8c00" fill-opacity="1"></use></g><g><use xlink:href="#f26vSLeljq" opacity="1" fill="#ff8c00" fill-opacity="1"></use></g><g><use xlink:href="#a1ASx0A2dO" opacity="1" fill="#ff8c00" fill-opacity="1"></use></g></g></g></svg>