<?xml version="1.0" encoding="UTF-8" standalone="no"?>
<!DOCTYPE svg PUBLIC "-//W3C//DTD SVG 1.1//EN" "http://www.w3.org/Graphics/SVG/1.1/DTD/svg11.dtd">
<svg version="1.1" xmlns="http://www.w3.org/2000/svg" xmlns:xlink="http://www.w3.org/1999/xlink" preserveAspectRatio="xMidYMid meet" viewBox="0 0 1920 80" width="1920" height="80"><defs><path d="M0 0C48 1.78 74.67 2.77 80 2.97C160 5.83 320 11.94 480 19.25C640 26.67 800 35.56 960 32.58C1120 29.72 1280 14.72 1440 7.42C1600 0 1760 0 1840 0C1845.33 0 1872 0 1920 0L1920 80C1872 80 1845.33 80 1840 80C1760 80 1600 80 1440 80C1280 80 1120 80 960 80C800 80 640 80 480 80C320 80 160 80 80 80C74.67 80 48 80 0 80L0 0Z" id="buDsGZbys"></path></defs><g><g><g><use xlink:href="#buDsGZbys" opacity="1" fill="#ff8c00" fill-opacity="1"></use><g><use xlink:href="#buDsGZbys" opacity="1" fill-opacity="0" stroke="#000000" stroke-width="1" stroke-opacity="0"></use></g></g></g></g></svg>