<?xml version="1.0" encoding="UTF-8" standalone="no"?>
<!DOCTYPE svg PUBLIC "-//W3C//DTD SVG 1.1//EN" "http://www.w3.org/Graphics/SVG/1.1/DTD/svg11.dtd">
<svg version="1.1" xmlns="http://www.w3.org/2000/svg" xmlns:xlink="http://www.w3.org/1999/xlink" preserveAspectRatio="xMidYMid meet" viewBox="0 0 300 300" width="300" height="300"><defs><path d="M236.08 87.52C241.97 87.52 247.11 91.5 248.6 97.19C258.67 135.84 286.37 242.11 296.44 280.76C297.72 285.66 294.02 290.44 288.97 290.44C231.4 290.44 68.72 290.44 11.16 290.44C6.07 290.44 2.32 285.67 3.53 280.72C12.98 242.08 38.96 135.87 48.41 97.23C49.81 91.53 54.92 87.52 60.79 87.52C97.85 87.52 199.02 87.52 236.08 87.52Z" id="b1eW4ZhP4J"></path><path d="M187.5 55.72C187.5 76.42 170.7 93.22 150 93.22C129.3 93.22 112.5 76.42 112.5 55.72C112.5 35.02 129.3 18.22 150 18.22C170.7 18.22 187.5 35.02 187.5 55.72Z" id="cx4btwfog"></path></defs><g><g><g><use xlink:href="#b1eW4ZhP4J" opacity="1" fill="#ff8c00" fill-opacity="1"></use></g><g><use xlink:href="#cx4btwfog" opacity="1" fill="#ffffff" fill-opacity="0"></use><g><use xlink:href="#cx4btwfog" opacity="1" fill-opacity="0" stroke="#ff8c00" stroke-width="23" stroke-opacity="1"></use></g></g></g></g></svg>